<?xml version="1.0" encoding="utf-8"?>
<!-- Generator: Adobe Illustrator 26.5.0, SVG Export Plug-In . SVG Version: 6.00 Build 0)  -->
<svg version="1.1" id="Layer_1" xmlns="http://www.w3.org/2000/svg" xmlns:xlink="http://www.w3.org/1999/xlink" x="0px" y="0px"
	 viewBox="0 0 254.6 254.6" style="enable-background:new 0 0 254.6 254.6;" xml:space="preserve">
<path d="M125,245.2c-60.4-0.5-108.8-45-116.4-104.5c-8-61.9,37.7-115.1,88-127.1c19.7-4.7,39.5-4.1,59.2,0.6
	c1.5,0.4,3.4,0.6,4.4,1.6c1.6,1.7,3.7,4.1,3.4,5.8c-0.3,1.5-3.7,3.7-5.5,3.5c-7-0.7-14-2.7-21-3.4C94.8,17.8,60.5,32.5,36.7,68.1
	C1.3,121,17.4,191.1,73.6,221.3c71.1,38.2,145.3-8.5,157.3-74.4c2.8-15.6,2.1-31-2-46.3c-1.1-4.1-3.7-9.9,3.1-11.2
	c6.3-1.3,6,4.9,7,8.8c17.5,68.6-25.9,134.1-96.2,145.3C136.8,244.4,130.9,244.7,125,245.2z"/>
<path d="M126,198.2c36,1.5,73.1-30.1,70.9-74c-0.2-3.7,0.6-7.1,5-7.3c5.2-0.2,5.6,4,5.8,7.9c1.5,38.3-25.2,73-63.1,81.9
	c-44.5,10.4-89.7-18-98.6-62c-9.4-46.3,19.5-89.4,65.7-97.5c5.6-1,11.4-1,17.1-1.3c3.7-0.2,6.9,1,7,5.4c0.1,4.8-3.6,4.8-7.1,4.8
	c-20.2,0-38.2,5.8-52.6,20.4C55.7,97.1,49,121.8,57.9,149c8.7,26.9,28.1,43.2,56.3,48.4C118,198.2,122,197.9,126,198.2z"/>
<path d="M207.7,45c5.9,0,10.9-0.4,15.7,0.2c2.5,0.3,5.9,1.9,7,3.9c0.8,1.5-0.7,5.3-2.4,7c-10.6,10.9-21.3,21.7-32.4,32.1
	c-2.3,2.1-6.5,3.6-9.6,3.2c-12.4-1.6-21.4,3.1-29.4,12.4c-7.5,8.7-16.1,16.3-24.3,24.3c-1.3,1.2-2.6,3-4.1,3.3
	c-2,0.3-4.9,0.1-6.3-1.2c-1-0.9-0.9-4-0.2-5.8c0.6-1.7,2.4-3.1,3.8-4.5c10.3-10.3,20.6-20.8,31.1-30.9c3.7-3.6,5.6-7.4,5.1-12.6
	c-0.2-2.1,0.1-4.4-0.1-6.5c-0.7-6.9,2-11.9,7-16.6c9.4-8.8,18-18.3,27.4-27.1c2.1-2,5.7-2.3,8.7-3.4c1,2.8,2.6,5.5,2.9,8.3
	C208.1,35.3,207.7,39.7,207.7,45z M197.2,42.1c-1-0.4-2-0.7-2.9-1.1c-6,6.7-12,13.5-18.2,20.1c-3.1,3.3-5.3,13.7-3.4,17.6
	c0.4,0.8,1.4,1.8,2.1,1.8c4.7-0.1,10.8,1.2,13.8-1.2c8.1-6.5,15-14.7,23.7-23.6C200.2,58,195.2,53.6,197.2,42.1z"/>
<path d="M130.8,173.4c-30.5,0.1-50.7-19.7-51.4-45.3c-0.7-24.2,18.9-45.8,42.5-46.9c1.6-0.1,3.6-0.5,4.6,0.3c1.7,1.2,3.7,3.2,3.9,5
	c0.2,1.3-2,3.8-3.6,4.4c-2.7,1-5.8,0.8-8.7,1.4c-17.2,3.9-30,20.6-28.5,37.1c1.8,18.7,16.9,33.3,35.1,33.8
	c18.3,0.5,33.5-12.3,36.4-30.5c0.3-1.8,0.7-3.5,0.8-5.3c0.2-3.6,2.5-5.4,5.4-4.4c2,0.6,4.6,3.4,4.6,5.3c0,9.9-2.9,19.2-9.1,27
	C153.4,167.1,141.2,173.5,130.8,173.4z"/>
</svg>
