<svg width="40" height="40" viewBox="0 0 40 40" fill="none" xmlns="http://www.w3.org/2000/svg">
<rect x="0.5" y="0.5" width="39" height="39" rx="19.5" stroke="white"/>
<mask id="mask0_94_1446" style="mask-type:alpha" maskUnits="userSpaceOnUse" x="14" y="14" width="12" height="12">
<g clip-path="url(#clip0_94_1446)">
<g clip-path="url(#clip1_94_1446)">
<path d="M20.0023 17.3049C18.5117 17.3049 17.3094 18.5072 17.3094 19.9979C17.3094 21.4885 18.5117 22.6908 20.0023 22.6908C21.493 22.6908 22.6953 21.4885 22.6953 19.9979C22.6953 18.5072 21.493 17.3049 20.0023 17.3049ZM20.0023 21.7486C19.0391 21.7486 18.2516 20.9635 18.2516 19.9979C18.2516 19.0322 19.0367 18.2471 20.0023 18.2471C20.968 18.2471 21.7531 19.0322 21.7531 19.9979C21.7531 20.9635 20.9656 21.7486 20.0023 21.7486ZM23.4336 17.1947C23.4336 17.5439 23.1523 17.8229 22.8055 17.8229C22.4563 17.8229 22.1773 17.5416 22.1773 17.1947C22.1773 16.8479 22.4586 16.5666 22.8055 16.5666C23.1523 16.5666 23.4336 16.8479 23.4336 17.1947ZM25.2172 17.8322C25.1773 16.9908 24.9852 16.2455 24.3688 15.6314C23.7547 15.0174 23.0094 14.8252 22.168 14.783C21.3008 14.7338 18.7016 14.7338 17.8344 14.783C16.9953 14.8229 16.25 15.015 15.6336 15.6291C15.0172 16.2432 14.8273 16.9885 14.7852 17.8299C14.7359 18.6971 14.7359 21.2963 14.7852 22.1635C14.825 23.0049 15.0172 23.7502 15.6336 24.3643C16.25 24.9783 16.993 25.1705 17.8344 25.2127C18.7016 25.2619 21.3008 25.2619 22.168 25.2127C23.0094 25.1729 23.7547 24.9807 24.3688 24.3643C24.9828 23.7502 25.175 23.0049 25.2172 22.1635C25.2664 21.2963 25.2664 18.6994 25.2172 17.8322ZM24.0969 23.0939C23.9141 23.5533 23.5602 23.9072 23.0984 24.0924C22.407 24.3666 20.7664 24.3033 20.0023 24.3033C19.2383 24.3033 17.5953 24.3643 16.9063 24.0924C16.4469 23.9096 16.093 23.5557 15.9078 23.0939C15.6336 22.4025 15.6969 20.7619 15.6969 19.9979C15.6969 19.2338 15.6359 17.5908 15.9078 16.9018C16.0906 16.4424 16.4445 16.0885 16.9063 15.9033C17.5977 15.6291 19.2383 15.6924 20.0023 15.6924C20.7664 15.6924 22.4094 15.6314 23.0984 15.9033C23.5578 16.0861 23.9117 16.44 24.0969 16.9018C24.3711 17.5932 24.3078 19.2338 24.3078 19.9979C24.3078 20.7619 24.3711 22.4049 24.0969 23.0939Z" fill="black"/>
</g>
</g>
</mask>
<g mask="url(#mask0_94_1446)">
<rect x="14" y="14" width="12" height="12" fill="white"/>
</g>
<defs>
<clipPath id="clip0_94_1446">
<rect width="12" height="12" fill="white" transform="translate(14 14)"/>
</clipPath>
<clipPath id="clip1_94_1446">
<rect width="10.5" height="12" fill="white" transform="translate(14.75 14)"/>
</clipPath>
</defs>
</svg>
