<?xml version="1.0" encoding="utf-8"?>
<!-- Generator: Adobe Illustrator 26.5.0, SVG Export Plug-In . SVG Version: 6.00 Build 0)  -->
<svg version="1.1" id="Layer_1" xmlns="http://www.w3.org/2000/svg" xmlns:xlink="http://www.w3.org/1999/xlink" x="0px" y="0px"
	 viewBox="0 0 254.6 254.6" style="enable-background:new 0 0 254.6 254.6;" xml:space="preserve">
<g>
	<path d="M-183.4,245.2c-60.4-0.5-108.8-45-116.4-104.5c-8-61.9,37.7-115.1,88-127.1c19.7-4.7,39.5-4.1,59.2,0.6
		c1.5,0.4,3.4,0.6,4.4,1.6c1.6,1.7,3.7,4.1,3.4,5.8c-0.3,1.5-3.7,3.7-5.5,3.5c-7-0.7-14-2.7-21-3.4c-42.3-3.8-76.6,10.8-100.4,46.4
		c-35.4,52.9-19.3,123,36.9,153.2c71.1,38.2,145.3-8.5,157.3-74.4c2.8-15.6,2.1-31-2-46.3c-1.1-4.1-3.7-9.9,3.1-11.2
		c6.3-1.3,6,4.9,7,8.8c17.5,68.6-25.9,134.1-96.2,145.3C-171.6,244.4-177.5,244.7-183.4,245.2z"/>
	<path d="M-182.5,198.2c36,1.5,73.1-30.1,70.9-74c-0.2-3.7,0.6-7.1,5-7.3c5.2-0.2,5.6,4,5.8,7.9c1.5,38.3-25.2,73-63.1,81.9
		c-44.5,10.4-89.7-18-98.6-62c-9.4-46.3,19.5-89.4,65.7-97.5c5.6-1,11.4-1,17.1-1.3c3.7-0.2,6.9,1,7,5.4c0.1,4.8-3.6,4.8-7.1,4.8
		c-20.2,0-38.2,5.8-52.6,20.4c-20.2,20.6-26.9,45.3-18,72.5c8.7,26.9,28.1,43.2,56.3,48.4C-190.4,198.2-186.4,197.9-182.5,198.2z"/>
	<path d="M-100.7,45c5.9,0,10.9-0.4,15.7,0.2c2.5,0.3,5.9,1.9,7,3.9c0.8,1.5-0.7,5.3-2.4,7C-91,67-101.7,77.8-112.8,88.2
		c-2.3,2.1-6.5,3.6-9.6,3.2c-12.4-1.6-21.4,3.1-29.4,12.4c-7.5,8.7-16.1,16.3-24.3,24.3c-1.3,1.2-2.6,3-4.1,3.3
		c-2,0.3-4.9,0.1-6.3-1.2c-1-0.9-0.9-4-0.2-5.8c0.6-1.7,2.4-3.1,3.8-4.5c10.3-10.3,20.6-20.8,31.1-30.9c3.7-3.6,5.6-7.4,5.1-12.6
		c-0.2-2.1,0.1-4.4-0.1-6.5c-0.7-6.9,2-11.9,7-16.6c9.4-8.8,18-18.3,27.4-27.1c2.1-2,5.7-2.3,8.7-3.4c1,2.8,2.6,5.5,2.9,8.3
		C-100.3,35.3-100.7,39.7-100.7,45z M-111.3,42.1c-1-0.4-2-0.7-2.9-1.1c-6,6.7-12,13.5-18.2,20.1c-3.1,3.3-5.3,13.7-3.4,17.6
		c0.4,0.8,1.4,1.8,2.1,1.8c4.7-0.1,10.8,1.2,13.8-1.2c8.1-6.5,15-14.7,23.7-23.6C-108.3,58-113.2,53.6-111.3,42.1z"/>
	<path d="M-177.7,173.4c-30.5,0.1-50.7-19.7-51.4-45.3c-0.7-24.2,18.9-45.8,42.5-46.9c1.6-0.1,3.6-0.5,4.6,0.3
		c1.7,1.2,3.7,3.2,3.9,5c0.2,1.3-2,3.8-3.6,4.4c-2.7,1-5.8,0.8-8.7,1.4c-17.2,3.9-30,20.6-28.5,37.1c1.8,18.7,16.9,33.3,35.1,33.8
		c18.3,0.5,33.5-12.3,36.4-30.5c0.3-1.8,0.7-3.5,0.8-5.3c0.2-3.6,2.5-5.4,5.4-4.4c2,0.6,4.6,3.4,4.6,5.3c0,9.9-2.9,19.2-9.1,27
		C-155,167.1-167.2,173.5-177.7,173.4z"/>
</g>
<g>
	<path d="M225.8,125.9c-21.8,28.2-45.1,50.8-78.3,59.6c-31.4,8.3-58.2-3.4-82.2-22.4c-10.9-8.7-20.3-19.3-29.7-29.7
		c-2-2.2-2.7-8.6-1.1-10.6c19.5-24.6,42.3-45.3,73.6-53.5c30.1-7.8,56.4,2.2,79.5,20.7C201.2,100.7,213,113.7,225.8,125.9z
		 M174.9,127.6c0.2-26.2-20.2-47.3-46.1-47.7c-26.7-0.4-47.7,20-48.1,46.8c-0.4,26.8,20.1,47.9,46.7,48.1
		C154.3,174.9,174.7,154.7,174.9,127.6z M209.2,128.6c-8.9-8.8-15.8-15.6-22.1-21.9c0,14,0,27.5,0,43.2
		C194.9,142.4,201.6,135.9,209.2,128.6z M68.4,150.7c0-16.9,0-30.3,0-44.5c-7.3,6.7-14.3,13.2-22,20.3
		C54.5,135.4,60.9,142.5,68.4,150.7z"/>
	<path d="M164.3,244.5c0-4.7,0-8.1,0-12.7c12.3,0,24.1,0.1,36,0c21-0.1,31.1-10.1,31.2-30.8c0.1-11.9,0-23.7,0-36.2
		c4.7,0,8.4,0,12.4,0c0,16.5,1.3,33-0.4,49.2c-1.7,16.1-16.7,29.1-33.3,30.3C195.3,245.3,180.2,244.5,164.3,244.5z"/>
	<path d="M91,10.2c0,4.7,0,8.1,0,12.7c-12.3,0-24.2-0.1-36,0c-20.9,0.2-30.9,10.2-31.1,31.1c-0.1,11.6,0,23.1,0,35.9
		c-4.2,0.3-7.8,0.5-14.1,0.9c1-18.5,0.1-36.5,3.4-53.7C16.1,21.4,29,12,45,10.5C59.9,9.1,75.1,10.2,91,10.2z"/>
	<path d="M163.7,22.9c0.2-5,0.4-8.4,0.6-12.5c16.3,0,32.2-1.2,47.8,0.3c17.5,1.7,31.1,16.6,32.3,34c1,14.7,0.2,29.5,0.2,45
		c-4.1,0-7.8,0-13,0c0-12,0.1-24.2,0-36.4c-0.1-20.1-10.4-30.2-30.7-30.4C188.9,22.8,177,22.9,163.7,22.9z"/>
	<path d="M91.1,231.8c0,4.7,0,8,0,12.1c-16.5,0-33.1,1.5-49.2-0.4c-17.3-2-29.6-16.6-30.7-34.1c-0.9-14.6-0.2-29.3-0.2-44.7
		c4.5,0,8.1,0,12.9,0c0,13-0.1,25.5,0,38.1c0.2,17.6,10.4,28.1,28,28.8c6.3,0.3,12.6,0.1,19,0.1C77.2,231.8,83.5,231.8,91.1,231.8z"
		/>
	<path d="M124,107.6c14.9-0.3,23.7,7,24.2,18.9c0.4,10.7-7.5,19.7-18.2,20.9c-12.5,1.3-20.5-6.3-22.8-22.4
		C117.3,124.1,127.2,122.2,124,107.6z"/>
</g>
</svg>
